# xmcd
#
# Track frame offsets:
#	150
#	15813
#	33901
#	51120
#	70000
#	87022
#	106401
#	122651
#	141031
#	156777
#	177169
#	195479
#	216861
#	236902
#	250374
#	284571
#
# Disc length: 3807 seconds
#
# Revision: 2
# Processed by: cddbd v1.5.1PL2 Copyright (c) Steve Scherf et al.
# Submitted via: audiograbber 1.83.01
#
DISCID=d70edd10
DTITLE=Sound Choice - SC8904
DYEAR=2004
DGENRE=Karaoke
TTITLE0=Alison Krauss and James Taylor - How's The World Treating You
TTITLE1=Sara Evans - Suds In The Bucket
TTITLE2=Terri Clark - Girls Lie Too
TTITLE3=Martina McBride - How Far
TTITLE4=Gretchen Wilson - Redneck Woman
TTITLE5=Julie Roberts - Break Down Here
TTITLE6=Gretchen Wilson - Here For The Party
TTITLE7=Shania Twain - She's Not Just A Pretty Face (Country Version)
TTITLE8=Martina McBride - In My Daughter's Eyes
TTITLE9=Brad Paisley and Alison Krauss - Whiskey Lullaby
TTITLE10=Reba McEntire - Somebody
TTITLE11=Sara Evans - Perfect
TTITLE12=Mindy Smith - Come To Jesus
TTITLE13=Terri Clark - I Wanna Do It All
TTITLE14=Shania Twain - Forever And For Always (Country Version)
TTITLE15=Data - Data Track
EXTD=
EXTT0=
EXTT1=
EXTT2=
EXTT3=
EXTT4=
EXTT5=
EXTT6=
EXTT7=
EXTT8=
EXTT9=
EXTT10=
EXTT11=
EXTT12=
EXTT13=
EXTT14=
EXTT15=
PLAYORDER=
